<svg width="760" height="180" viewBox="0 0 760 180" fill="none" xmlns="http://www.w3.org/2000/svg">
  <rect width="180" height="180" rx="48" fill="#D3FB0D"/>
  <path d="M54 64C54 54.0589 62.0589 46 72 46H118C127.941 46 136 54.0589 136 64V71C136 80.9411 127.941 89 118 89H97V128C97 137.941 88.9411 146 79 146H72C62.0589 146 54 137.941 54 128V64Z" fill="#111111"/>
  <path d="M124 108C124 126.778 108.778 142 90 142H82V126H88C98.4934 126 107 117.493 107 107V100.5L94 100.5C88.201 100.5 83.5 95.799 83.5 90C83.5 84.201 88.201 79.5 94 79.5L130 79.5V108Z" fill="#111111"/>
  <path d="M125 80L146 67V93L125 80Z" fill="#111111"/>
  <circle cx="130" cy="50" r="10" fill="#1769E8"/>
  <path d="M223.6 120V60.56H202V45.2H262.88V60.56H241.28V120H223.6Z" fill="#111111"/>
  <path d="M272.146 120V45.2H289.826V74.48H320.066V45.2H337.746V120H320.066V89.92H289.826V120H272.146Z" fill="#111111"/>
  <path d="M352.294 120V45.2H409.414V59.68H369.774V74.96H405.174V88.72H369.774V105.52H411.014V120H352.294Z" fill="#111111"/>
  <path d="M441.692 120V45.2H475.132C483.239 45.2 489.585 47.0667 494.172 50.8C498.812 54.48 501.132 59.5733 501.132 66.08C501.132 69.9733 500.119 73.44 498.092 76.48C496.119 79.4667 493.132 81.76 489.132 83.36C494.065 84.5333 497.852 86.8267 500.492 90.24C503.132 93.6 504.452 97.7333 504.452 102.64C504.452 108.88 502.052 113.893 497.252 117.68C492.505 121.413 485.879 123.28 477.372 123.28L441.692 120ZM459.372 76.96H472.412C475.932 76.96 478.625 76.24 480.492 74.8C482.412 73.36 483.372 71.2533 483.372 68.48C483.372 65.7067 482.412 63.6267 480.492 62.24C478.572 60.8533 475.799 60.16 472.172 60.16H459.372V76.96ZM459.372 105.28H474.972C478.652 105.28 481.505 104.533 483.532 103.04C485.612 101.493 486.652 99.2 486.652 96.16C486.652 93.12 485.612 90.8533 483.532 89.36C481.505 87.8133 478.519 87.04 474.572 87.04H459.372V105.28Z" fill="#111111"/>
  <path d="M537.45 121.44C530.303 121.44 524.436 119.76 519.85 116.4C515.316 112.987 512.063 108.507 510.09 102.96C508.17 97.36 507.21 91.1733 507.21 84.4V45.2H524.89V83.52C524.89 90.0267 526.09 95.1733 528.49 98.96C530.943 102.693 534.116 104.56 538.01 104.56C541.903 104.56 545.05 102.693 547.45 98.96C549.903 95.1733 551.13 90.0267 551.13 83.52V45.2H568.81V84.4C568.81 91.1733 567.823 97.36 565.85 102.96C563.93 108.507 560.676 112.987 556.09 116.4C551.503 119.76 545.623 121.44 538.45 121.44Z" fill="#111111"/>
  <path d="M601.115 120V91.28L571.835 45.2H592.155L610.235 75.84L628.235 45.2H648.155L618.795 91.28V120H601.115Z" fill="#111111"/>
  <path d="M668.689 121.44C662.503 121.44 656.876 120.64 651.809 119.04C646.796 117.44 642.369 115.147 638.529 112.16L646.049 98.56C649.623 101.147 653.143 103.04 656.609 104.24C660.129 105.44 663.729 106.04 667.409 106.04C670.183 106.04 672.343 105.493 673.889 104.4C675.489 103.253 676.289 101.733 676.289 99.84C676.289 98.0267 675.516 96.6133 673.969 95.6C672.423 94.5867 669.996 93.6267 666.689 92.72L658.609 90.56C651.569 88.6933 646.316 85.9733 642.849 82.4C639.436 78.7733 637.729 74 637.729 68.08C637.729 63.28 639.036 59.0133 641.649 55.28C644.263 51.4933 647.889 48.56 652.529 46.48C657.169 44.4 662.556 43.36 668.689 43.36C673.916 43.36 678.849 44.0533 683.489 45.44C688.183 46.7733 692.236 48.72 695.649 51.28L688.209 64.4C684.956 62.1333 681.863 60.5333 678.929 59.6C676.049 58.6133 673.223 58.12 670.449 58.12C667.809 58.12 665.729 58.64 664.209 59.68C662.743 60.72 662.009 62.1067 662.009 63.84C662.009 65.4933 662.689 66.88 664.049 68C665.463 69.0667 667.703 70 670.769 70.8L678.769 72.88C686.289 74.8 691.809 77.5467 695.329 81.12C698.849 84.64 700.609 89.4933 700.609 95.68C700.609 100.64 699.276 105.067 696.609 108.96C693.996 112.8 690.236 115.813 685.329 118C680.476 120.293 674.929 121.44 668.689 121.44Z" fill="#111111"/>
</svg>
