<svg width="180" height="180" viewBox="0 0 180 180" fill="none" xmlns="http://www.w3.org/2000/svg">
  <rect width="180" height="180" rx="48" fill="#D3FB0D"/>
  <path d="M54 64C54 54.0589 62.0589 46 72 46H118C127.941 46 136 54.0589 136 64V71C136 80.9411 127.941 89 118 89H97V128C97 137.941 88.9411 146 79 146H72C62.0589 146 54 137.941 54 128V64Z" fill="#111111"/>
  <path d="M124 108C124 126.778 108.778 142 90 142H82V126H88C98.4934 126 107 117.493 107 107V100.5L94 100.5C88.201 100.5 83.5 95.799 83.5 90C83.5 84.201 88.201 79.5 94 79.5L130 79.5V108Z" fill="#111111"/>
  <path d="M125 80L146 67V93L125 80Z" fill="#111111"/>
  <circle cx="130" cy="50" r="10" fill="#1769E8"/>
</svg>
